# xmcd
#
# Track frame offsets: 
#        150
#        9917
#        21065
#        33785
#        43470
#        50005
#        64237
#        75190
#        85062
#        96137
#        106687
#        115647
#        129080
#        144947
#
# Disc length: 2070 seconds
#
# Revision: 3
# Processed by: cddbd v1.5.2PL0 Copyright (c) Steve Scherf et al.
# Submitted via: ExactAudioCopy v1.1
#
DISCID=9b08140e
DTITLE=Eric Clapton - Beginnings
DYEAR=1994
DGENRE=Blues
TTITLE0=West Coast Idea
TTITLE1=Snake Drive
TTITLE2=Eric Clapton with Jimmy Page - Freight Loader
TTITLE3=Tribute to Elmore
TTITLE4=Eric Clapton with Jimmy Page - Choker (with Jimmy Page)
TTITLE5=Eric Clapton with Jimmy Page - Dragging my Tail (with Jimmy Pa
TTITLE5=ge)
TTITLE6=Eric Clapton with Jimmy Page - Miles Road (with Jimmy Page)
TTITLE7=Eric Clapton with John Mayall and His Bluesbreakers - I'm Your W
TTITLE7=itch - Doctor
TTITLE8=Boom Boom
TTITLE9=Honet in Your Hips
TTITLE10=Talkin' About You
TTITLE11=You Can't Judge a Book By Lookin' At the Cover
TTITLE12=Louise
TTITLE13=Putty (In Your Hands)
EXTD=
EXTT0=
EXTT1=
EXTT2=
EXTT3=
EXTT4=
EXTT5=
EXTT6=
EXTT7=
EXTT8=
EXTT9=
EXTT10=
EXTT11=
EXTT12=
EXTT13=
PLAYORDER=
